<svg width="460" height="152" viewBox="0 0 460 152" fill="none" xmlns="http://www.w3.org/2000/svg">
  <style>
    .bg { fill: #181818; }
    .title { fill: #ffffff; font-family: -apple-system, BlinkMacSystemFont, "Segoe UI", Helvetica, Arial, sans-serif; font-size: 16px; font-weight: 700; }
    .artist { fill: #b3b3b3; font-family: -apple-system, BlinkMacSystemFont, "Segoe UI", Helvetica, Arial, sans-serif; font-size: 13px; font-weight: 400; }
    .status { fill: #1db954; font-family: -apple-system, BlinkMacSystemFont, "Segoe UI", Helvetica, Arial, sans-serif; font-size: 11px; font-weight: 600; text-transform: uppercase; letter-spacing: 0.5px; }
    .time { fill: #a7a7a7; font-family: -apple-system, BlinkMacSystemFont, "Segoe UI", Helvetica, Arial, sans-serif; font-size: 11px; }
  </style>
  <rect width="460" height="152" rx="8" class="bg" />
  
  <rect x="16" y="16" width="120" height="120" rx="4" fill="#282828" />
  

  <text x="152" y="50" class="title">Nada a tocar</text>
  <text x="152" y="72" class="artist">Offline</text>
  
  <g transform="translate(152, 92)">
    <path fill="#1db954" d="M12 0C5.4 0 0 5.4 0 12s5.4 12 12 12 12-5.4 12-12S18.66 0 12 0zm5.521 17.34c-.24.359-.66.48-1.021.24-2.82-1.74-6.36-2.101-10.561-1.141-.418.122-.779-.179-.899-.539-.12-.421.18-.78.54-.9 4.56-1.021 8.52-.6 11.64 1.32.42.18.479.659.301 1.02zm1.44-3.3c-.301.42-.841.6-1.262.3-3.239-1.98-8.159-2.58-11.939-1.38-.479.12-1.02-.12-1.14-.6-.12-.48.12-1.021.6-1.141C9.6 9.9 15 10.561 18.72 12.84c.361.181.54.78.241 1.2zm.12-3.36C15.24 8.4 8.82 8.16 5.16 9.301c-.6.179-1.2-.181-1.38-.721-.18-.601.18-1.2.72-1.381 4.26-1.26 11.28-1.02 15.721 1.621.539.3.719 1.02.419 1.56-.299.421-1.02.599-1.559.3z"/>
    <text x="26" y="15" class="status">LAST PLAYED</text>
  </g>

  <rect x="152" y="122" width="260" height="4" rx="2" fill="#404040" />
  <rect x="152" y="122" width="0" height="4" rx="2" fill="#1db954" />
  
  <text x="152" y="143" class="time">0:00</text>
  <text x="412" y="143" text-anchor="end" class="time">-0:00</text>
</svg>